<svg width="94" height="154" viewBox="0 0 94 154" fill="none" xmlns="http://www.w3.org/2000/svg">
<g id="Layer_1" clip-path="url(#clip0_241_7685)">
<g id="Group">
<path id="Vector" d="M69.6908 61.6498C69.3584 59.509 71.6933 57.4961 71.4671 55.1699C71.23 52.7272 68.6465 50.9883 66.0464 52.4822C63.7481 53.8022 63.1672 56.8945 63.6909 59.0232C64.195 61.0716 67.1402 64.6896 66.4302 67.0732C66.8789 67.234 67.1284 65.5043 67.5467 65.6814C67.9534 64.7656 69.3531 62.1249 69.1852 61.6424L69.6914 61.6503L69.6908 61.6498Z" fill="#FDBCC4"/>
<path id="Vector_2" d="M66.1978 65.5567C63.9229 63.5644 65.5456 59.3555 63.328 57.3716C61.6863 55.9031 58.3205 56.1319 56.2525 57.265C50.5748 60.3739 53.7064 69.125 59.8352 67.714C61.1516 67.4112 62.7473 66.5641 63.8227 67.4228C66.381 69.4653 65.7667 69.0576 67.1418 66.8543L66.1972 65.5574L66.1978 65.5567Z" fill="#FDB2BB"/>
<path id="Vector_3" d="M56.0042 67.0011C52.905 67.1826 51.5932 71.0361 52.017 73.4452C52.5925 76.7171 55.2282 77.8091 58.1217 75.3006C59.2287 74.3404 59.3289 73.3571 60.2069 72.1446C61.1283 70.8728 63.3468 70.6845 64.0182 69.5167C64.1444 69.2982 64.3326 69.0888 64.4427 68.8666C63.9705 68.6622 58.864 66.8343 56.0036 67.0018L56.0042 67.0011Z" fill="#FDB2BB"/>
<g id="Group_2">
<path id="Vector_4" d="M62.9269 65.2119C63.8385 66.4626 65.7956 67.3573 66.9619 67.8906C67.0585 67.935 67.151 67.9768 67.2364 68.0169L67.262 67.9707C67.176 67.9312 67.0847 67.8893 66.9875 67.8444C65.5124 67.1704 62.7667 65.9153 62.5034 64.103C62.4052 63.4299 62.6613 62.7274 63.2651 62.0175L63.2287 61.9878C62.6138 62.712 62.3532 63.4276 62.4533 64.1172C62.5107 64.5084 62.6801 64.8737 62.9281 65.213L62.9269 65.2119Z" fill="#F5ECCF"/>
<path id="Vector_5" d="M65.6823 65.4853C66.0371 65.9724 66.5118 66.3772 67.0931 66.6593L67.1199 66.6129C65.2221 65.693 64.4682 63.4369 65.3686 61.3657L65.3228 61.3507C64.6877 62.8122 64.866 64.3645 65.6829 65.4858L65.6823 65.4853Z" fill="#F5ECCF"/>
<path id="Vector_6" d="M59.458 67.3422L59.4889 67.3778C60.3863 66.5671 62.2303 66.6099 63.4941 67.12C64.5538 67.5473 65.13 68.2235 65.0759 68.9762L65.1263 68.9734C65.1821 68.2002 64.5961 67.5065 63.518 67.0721C62.2393 66.557 60.3713 66.5167 59.4574 67.3417L59.458 67.3422Z" fill="#F5ECCF"/>
<path id="Vector_7" d="M58.3091 70.711L58.3425 70.744C60.0554 69.0366 62.9396 67.7719 65.1372 68.6602L65.1611 68.6124C62.9433 67.7166 60.0349 68.9898 58.3091 70.711Z" fill="#F5ECCF"/>
<path id="Vector_8" d="M59.3543 63.7496C60.1805 64.8843 61.6374 65.8266 62.9602 66.683C63.7436 67.1902 64.4838 67.6691 65.0365 68.1464L65.0728 68.1074C64.5166 67.6269 63.7757 67.1475 62.9912 66.6391C61.2581 65.5176 59.2941 64.2462 58.8335 62.5971L58.7851 62.6164C58.8962 63.0152 59.0942 63.3919 59.3549 63.749L59.3543 63.7496Z" fill="#F5ECCF"/>
<path id="Vector_9" d="M67.4632 66.3098L67.5138 66.2986C67.4766 65.9148 67.3995 65.4969 67.3181 65.0544C67.0298 63.4905 66.7038 61.7173 67.9849 60.5712L67.9539 60.5356C66.6478 61.704 66.977 63.4924 67.268 65.0697C67.3494 65.5111 67.426 65.9272 67.4632 66.3098Z" fill="#F5ECCF"/>
</g>
<path id="Vector_10" d="M69.8666 60.5347C72.197 62.7173 70.84 67.3012 68.6225 69.6526C66.7479 71.64 62.207 72.8181 60.2196 71.1937C62.0694 69.652 64.2974 68.9563 65.9629 67.0442C67.6075 65.1558 68.4629 62.3988 69.7953 60.5624L69.8666 60.5347Z" fill="#ECA4AA"/>
<path id="Vector_11" d="M68.9446 69.2013C69.5026 68.8652 70.0942 68.5502 70.3778 68.362C71.099 67.8854 73.2559 66.7688 73.9512 67.2494L75.4977 68.4583C73.9597 68.732 72.7722 70.5212 71.1308 70.8851C70.5749 71.0089 68.0124 71.1981 67.6748 70.5629C68.1796 70.1966 68.6244 69.7265 68.9434 69.2014L68.9446 69.2013Z" fill="#91807F"/>
</g>
<g id="Group_3">
<path id="Vector_12" d="M105.236 112.733C103.014 108.615 89.3812 110.936 86.4821 115.201C86.5124 115.187 86.468 115.392 86.4775 115.369C86.4616 115.385 85.0343 117.692 85.711 116.477C91.2336 113.929 99.3325 111.14 104.555 113.608L105.236 112.732L105.236 112.733Z" fill="#FDC9CA"/>
<path id="Vector_13" d="M99.0349 117.68C98.3741 118.954 95.7365 118.179 94.4166 118.813C93.6839 119.165 93.1992 120.187 92.4611 120.54C91.4933 121.004 90.4421 120.909 89.4315 120.947C85.8102 121.083 82.9234 118.764 86.8617 115.287C89.4064 113.041 92.4717 112.899 95.4934 112.344C98.9592 111.706 104.167 109.523 107.276 111.032C107.246 110.997 104.656 113.715 104.115 114.491L99.0342 117.68L99.0349 117.68Z" fill="#FDBCC4"/>
</g>
<g id="Group_4">
<g id="Group_5">
<path id="Vector_14" d="M88.2192 111.426C86.8968 112.037 79.485 127.672 76.9085 124.454C75.988 123.306 79.3289 117.265 80.08 116.12C81.8987 113.348 84.9316 111.436 86.6771 109.436L88.2192 111.426Z" fill="#FEDFDF"/>
<path id="Vector_15" d="M86.3919 108.77C81.3055 106.491 75.4234 114.812 76.5386 119.073C78.4714 119.213 80.1337 116.13 81.2765 114.664C82.7393 112.787 85.3835 111.177 86.5315 109.566L86.3919 108.77Z" fill="#FEDFDF"/>
<path id="Vector_16" d="M84.4405 109.116C79.7299 109.839 77.3096 107.942 75.7686 103.672C74.8461 101.117 75.6835 96.2802 77.7611 94.0442C80.2511 91.3648 85.0676 93.1366 86.8909 95.0437C89.8852 98.1747 88.3339 100.74 88.5364 104.642C88.5689 105.276 88.8465 105.965 89.165 106.308C89.076 106.296 89.0724 106.245 89.1543 106.152C88.1078 107.369 87.1308 109.205 85.8418 110.312L84.4399 109.118L84.4405 109.116Z" fill="#FDB2BB"/>
<path id="Vector_17" d="M78.6926 105.632C80.9084 106.689 83.3297 107.442 85.6706 108.17C86.0823 108.299 86.4952 108.427 86.9068 108.557L86.9328 108.495C86.5206 108.365 86.1089 108.237 85.696 108.109C83.3569 107.381 80.938 106.629 78.7257 105.575L78.6926 105.634L78.6926 105.632Z" fill="#F7F1DB"/>
<path id="Vector_18" d="M82.6597 105.34C83.8796 106.421 85.314 107.2 86.7252 107.506L86.7458 107.443C84.5852 106.973 82.3685 105.389 80.9604 103.307L80.9055 103.348C81.4025 104.082 81.9992 104.755 82.6597 105.34Z" fill="#F7F1DB"/>
<path id="Vector_19" d="M87.8545 103.127C86.1277 107.202 83.0009 114.879 90.3194 111.356C92.7435 110.189 95.5072 109.826 94.1892 106.63C92.9818 103.702 87.8551 103.127 87.8551 103.127L87.8545 103.127Z" fill="#F2939A"/>
<g id="Group_6">
<path id="Vector_20" d="M85.2737 108.771C83.1753 109.129 81.0046 109.499 79.0882 109.376L79.078 109.429C81.0004 109.553 83.1741 109.182 85.2761 108.823L85.2737 108.771Z" fill="#F7F1DB"/>
<path id="Vector_21" d="M84.3677 111.079C82.7394 111.856 81.0561 112.659 79.3257 113.137L79.3335 113.188C81.0693 112.709 82.7545 111.904 84.3858 111.126L84.3683 111.079L84.3677 111.079Z" fill="#F7F1DB"/>
<path id="Vector_22" d="M84.6072 105.49C83.377 104.764 82.2147 104.078 81.0586 103.876L81.0436 103.928C82.192 104.129 83.3501 104.813 84.5767 105.537L84.6078 105.491L84.6072 105.49Z" fill="#F7F1DB"/>
<path id="Vector_23" d="M85.7149 109.744C85.7115 109.763 85.7093 109.782 85.7076 109.801C84.0816 110.373 82.5726 111.061 81.743 111.942L81.7066 111.909C82.5479 111.015 84.0738 110.32 85.7149 109.744Z" fill="#F7F1DB"/>
<path id="Vector_24" d="M79.7381 108.543C79.6556 108.767 79.4107 108.911 79.1938 108.859C78.9792 108.805 78.8636 108.574 78.9455 108.349C79.0281 108.125 79.273 107.981 79.4899 108.033C79.7044 108.087 79.8194 108.319 79.7381 108.543Z" fill="#FFEB99"/>
<path id="Vector_25" d="M82.0985 111.93C82.0159 112.155 81.771 112.299 81.5541 112.246C81.3396 112.193 81.224 111.961 81.3059 111.736C81.3885 111.512 81.6333 111.368 81.8496 111.421C82.0642 111.475 82.1798 111.706 82.0979 111.931L82.0985 111.93Z" fill="#FFEB99"/>
<path id="Vector_26" d="M81.3407 105.915C81.2581 106.139 81.0132 106.284 80.7963 106.231C80.5818 106.178 80.4661 105.946 80.5481 105.721C80.6306 105.497 80.8755 105.353 81.0918 105.406C81.3063 105.459 81.422 105.691 81.3395 105.915L81.3407 105.915Z" fill="#FFEB99"/>
<path id="Vector_27" d="M82.4931 106.856C82.4106 107.08 82.1657 107.224 81.9494 107.17C81.7349 107.117 81.6192 106.886 81.7012 106.661C81.7837 106.437 82.0286 106.293 82.2449 106.346C82.4594 106.399 82.5751 106.631 82.4931 106.856Z" fill="#FFEB99"/>
<path id="Vector_28" d="M79.7583 111.731C79.6758 111.955 79.4309 112.1 79.214 112.047C78.9995 111.994 78.8844 111.761 78.9658 111.537C79.0483 111.313 79.2932 111.169 79.5095 111.222C79.724 111.275 79.8397 111.507 79.7577 111.732L79.7583 111.731Z" fill="#FFEB99"/>
<path id="Vector_29" d="M78.4148 111.5C78.3271 111.738 77.9726 111.651 78.0602 111.413C78.1473 111.175 78.5024 111.262 78.4148 111.5Z" fill="#FFEB99"/>
<path id="Vector_30" d="M81.7052 103.465C81.6003 103.751 81.2873 103.935 81.0108 103.867C80.7367 103.8 80.5896 103.503 80.6946 103.217C80.7995 102.932 81.1125 102.747 81.389 102.815C81.6631 102.882 81.8096 103.179 81.7052 103.465Z" fill="#FFEB99"/>
<path id="Vector_31" d="M79.1205 109.614C79.0155 109.9 78.7025 110.085 78.4261 110.016C78.152 109.949 78.0055 109.653 78.1098 109.366C78.2148 109.081 78.5277 108.896 78.8042 108.964C79.0783 109.031 79.2248 109.328 79.1205 109.614Z" fill="#FFEB99"/>
<path id="Vector_32" d="M77.7099 108.996C77.605 109.281 77.292 109.466 77.0155 109.398C76.7414 109.331 76.5943 109.033 76.6993 108.748C76.8042 108.462 77.1172 108.277 77.3937 108.346C77.6678 108.413 77.8149 108.71 77.7099 108.996Z" fill="#FFEB99"/>
</g>
</g>
<path id="Vector_33" d="M82.3562 100.784C82.4932 103.439 84.6483 105.196 86.8722 105.856C86.8616 105.876 86.8521 105.896 86.8438 105.917C85.8619 105.624 84.8933 105.121 84.1037 104.421C83.0898 103.523 82.3693 102.303 82.2918 100.796L82.3562 100.784Z" fill="#F7F1DB"/>
</g>
<path id="Vector_34" d="M145.98 93.3908C145.234 93.4417 144.8 94.143 144.104 94.1546C143.126 94.171 141.876 93.3209 140.67 93.3089C139.198 93.2939 138.193 93.7389 136.876 93.7258C135.615 93.7135 134.432 93.4095 133.125 93.4891C131.349 93.5976 131.059 93.108 129.559 92.7185C128.246 92.3777 126.997 93.3794 125.489 93.4202C122.687 93.4944 120.886 92.2892 119.53 90.3326C119.455 90.2262 119.382 90.1167 119.31 90.0047C119.311 90.0052 119.312 90.0051 119.313 90.005C119.312 90.0039 119.311 90.0028 119.31 90.0018L119.306 89.998C119.306 89.998 119.307 89.9996 119.308 90.0002C118.824 89.6739 118.34 89.3496 117.856 89.0281C117.715 88.9352 117.576 88.8415 117.435 88.7486C117.062 88.5011 116.687 88.2555 116.314 88.0093C115.881 87.7262 115.45 87.4441 115.018 87.1627C113.089 85.9079 111.161 84.671 109.233 83.4216C107.328 82.187 105.423 80.9405 103.521 79.6513C98.4655 76.2247 92.825 72.4776 86.9568 70.8092C85.8199 70.486 85.097 70.3153 84.2124 69.6298C83.6008 69.1562 84.2195 68.784 83.3155 68.5687C83.1752 68.8305 82.9498 69.0133 82.8263 69.2721C79.4104 68.3886 75.8554 66.918 72.1973 65.7532C71.7483 65.6103 71.3149 65.4598 70.8945 65.2967C69.9811 64.9456 69.1276 64.5442 68.3141 64.0717C68.1953 64.0022 68.0759 63.9309 67.9577 63.8583C67.6553 63.6722 67.359 63.4759 67.0661 63.2667C67.0484 63.2542 67.0307 63.2417 67.0131 63.228C66.7579 63.0459 66.5059 62.8534 66.2565 62.6523C65.9101 62.3722 65.5539 62.1002 65.1928 61.8336C65.1793 61.8236 65.1657 61.8137 65.1522 61.8037C65.0426 61.7231 64.933 61.6437 64.8234 61.5642C64.7975 61.5454 64.7721 61.5271 64.7462 61.5083C63.59 60.6759 62.4057 59.8876 61.3502 59.0531C60.8514 59.6303 60.5056 59.3484 60.4437 60.0476C59.862 59.7088 59.2661 59.2568 58.8405 58.7C59.9842 56.3755 55.0918 56.365 56.0167 58.6332C55.6354 58.5155 55.2546 58.3984 54.8738 58.2814C52.5767 57.5747 50.2854 56.8759 47.9549 56.2426C45.7106 55.6333 42.4866 55.5111 40.8353 53.8382C38.9943 51.9735 37.9956 49.3946 35.8159 47.6396C33.6455 45.8921 31.8197 44.3006 30.1017 42.1192C29.2911 41.088 27.715 39.1182 26.4633 38.7036C26.412 39.2572 26.1739 39.7817 26.4124 40.346C24.3688 38.2998 24.1864 35.7433 21.3279 34.3948C19.1074 35.0742 23.5205 40.5006 24.6912 41.1481C24.2857 41.1931 24.1441 41.4573 23.8274 41.5749C24.3802 42.4327 25.0513 43.1039 25.7907 43.6676C26.7298 44.3833 27.7783 44.9265 28.8331 45.4594C30.1343 46.1161 31.4447 46.7594 32.571 47.6928C34.9535 49.6699 37.4244 50.6578 39.9665 54.603C39.5627 54.8084 39.1925 54.8282 38.8292 54.8066C38.2979 54.7756 37.7794 54.6548 37.1865 54.8953C36.9071 55.5203 36.9904 56.34 37.3178 56.8425C37.6592 56.8747 38.2425 57.1488 38.7544 57.0642C38.4223 57.8146 38.9494 58.0277 39.6355 58.0266C40.2485 58.0271 40.9883 57.8574 41.3587 57.751C41.4275 58.3459 41.7615 58.8494 42.2863 59.1654C44.4627 58.0325 48.2855 58.5054 50.4203 59.1589C51.449 59.4736 52.5517 59.7776 53.6805 60.0663C55.5443 60.5419 57.4757 60.9751 59.2475 61.3407C60.5159 61.6031 61.7322 61.967 62.9102 62.406C62.9257 62.4115 62.9411 62.4171 62.9566 62.4227C63.6314 62.6754 64.2918 62.9528 64.9434 63.2504C64.96 63.2582 64.9778 63.2659 64.9944 63.2738C65.2903 63.4086 65.5842 63.549 65.8763 63.6914C66.3017 63.9006 66.7239 64.1167 67.1429 64.3398C67.1619 64.3497 67.1808 64.3597 67.2003 64.3702C67.3288 64.4388 67.4566 64.508 67.5844 64.5772C67.7134 64.6474 67.8418 64.7184 67.9701 64.7893C68.8563 65.2817 69.7305 65.7975 70.6003 66.3239C71.1787 66.6744 71.7553 67.0292 72.3318 67.3841C73.0909 67.8508 73.8494 68.3182 74.6135 68.7761C75.211 69.1354 75.8121 69.4883 76.4189 69.8316C78.7988 71.1789 81.3777 72.0809 83.7959 73.4523C84.9752 74.121 86.2252 74.9401 87.2997 75.8115C88.1365 76.49 88.4844 77.2178 88.9011 77.9535C89.1112 78.3242 89.3392 78.6966 89.6553 79.0664C91.1136 80.7706 94.3887 81.4471 96.4711 82.2655C96.5822 82.3084 96.6926 82.3531 96.803 82.3978C96.8849 82.4312 96.9668 82.4645 97.0493 82.4984C97.0659 82.505 97.0826 82.5117 97.0992 82.5195C97.1793 82.5524 97.2588 82.586 97.3389 82.6201C97.4137 82.6518 97.4884 82.6835 97.5626 82.7158C97.6071 82.7345 97.6515 82.7544 97.6954 82.7737C97.8129 82.8249 97.9297 82.8767 98.046 82.9292C98.1557 82.9782 98.2648 83.0278 98.3733 83.0781C99.3509 83.5282 100.308 84.0181 101.248 84.539C101.443 84.6467 101.636 84.7562 101.829 84.8665C101.829 84.8665 101.83 84.867 101.83 84.8676C102.475 85.2357 103.113 85.6171 103.742 86.0094C104.245 86.3223 104.743 86.6411 105.237 86.9657C106.108 87.5368 106.965 88.1229 107.814 88.7166C108.401 89.1277 108.983 89.5417 109.562 89.9572C109.902 90.2009 110.328 90.5768 110.812 91.0218C112.366 92.4485 114.529 94.5791 116.413 95.2771C111.803 95.3096 108.171 99.9986 105.166 103.861C104.836 104.286 104.513 104.7 104.197 105.097C104.041 105.293 103.887 105.485 103.736 105.672C103.72 105.691 103.705 105.709 103.691 105.727C104.709 105.762 105.399 106.359 106.02 107.045C106.284 106.861 106.547 106.673 106.81 106.482C106.97 106.366 107.129 106.249 107.289 106.131C107.623 105.884 107.957 105.632 108.292 105.38C108.479 105.239 108.667 105.098 108.854 104.957C110.009 104.087 111.174 103.221 112.368 102.472C112.385 102.605 112.411 102.736 112.443 102.864C112.552 103.299 112.73 103.711 112.889 104.134C112.973 104.355 113.053 104.579 113.114 104.812C113.085 104.509 113.071 104.236 113.069 103.989C113.062 103.191 113.191 102.657 113.43 102.257C114.012 101.283 115.246 101.101 116.761 99.8309C117.747 99.0032 117.454 98.2787 119.079 98.0705C120.306 97.9131 120.954 98.7616 122.412 98.6598C123.56 98.5804 124.209 97.6838 125.214 97.4478C126.257 97.2031 128.267 97.0489 129.235 97.4146C131.593 98.3043 133.261 97.31 135.438 98.7923C135.53 100.161 136.245 101.993 134.988 102.939C137.009 103.122 137.339 101.318 138.446 100.054C139.526 99.531 141.071 99.3688 142.176 99.5806C143.315 99.8002 143.995 100.786 145.324 100.049C145.319 100.047 145.317 100.042 145.323 100.037C145.324 100.042 145.324 100.045 145.324 100.049C145.328 100.048 145.332 100.044 145.336 100.043C145.336 100.052 145.329 100.053 145.323 100.05C145.472 101.758 147.85 99.5371 148.786 99.098C148.796 99.0935 148.806 99.0889 148.816 99.0848C149.746 98.7085 152.938 99.9987 154.96 101.015L158.93 96.7468C155.041 95.9235 149.172 94.2437 147.372 93.7611C146.815 93.612 146.637 93.3444 145.978 93.3887L145.98 93.3908ZM118.28 95.5235C118.197 95.5016 118.114 95.4815 118.032 95.4626C118.124 95.4417 118.215 95.4138 118.304 95.3789C118.294 95.43 118.286 95.4811 118.28 95.5319C118.279 95.5289 118.279 95.5265 118.28 95.5235Z" fill="#A58F85"/>
<path id="Vector_35" d="M113.505 112.478C112.739 116.152 113.834 120.763 113.429 124.613C112.923 129.428 108.693 129.671 104.972 131.445C103.024 132.374 101.559 133.253 99.6419 132.286C98.8962 131.91 98.6899 131.07 97.996 130.712C97.157 130.278 96.1918 130.48 95.3151 130.144C90.4403 128.276 93.2542 123.866 95.7934 120.592C98.3265 117.324 102.519 113.488 106.235 111.849C106.371 109.293 109.069 108.729 111.082 108.573L113.505 112.478L113.505 112.478Z" fill="#FDC9CA"/>
<g id="Group_7">
<path id="Vector_36" d="M31.0618 57.8241C29.1049 57.3027 27.1174 59.149 25.3964 60.021C23.4129 61.0259 22.6488 61.0022 20.7644 60.481C17.5601 59.5941 13.9381 58.5551 17.0244 54.5891C18.1333 53.1646 20.2664 52.7576 20.6211 51.1179C20.9913 49.4044 19.06 48.6862 21.3884 46.6894C22.08 46.0965 23.1791 46.0634 23.8411 45.5572C24.1761 45.3009 25.0978 43.8827 25.3433 43.7868C27.0262 43.1343 28.4443 45.0451 29.4652 46.1842C30.7003 47.5633 32.6067 48.8604 32.7364 50.828C32.8802 53.0104 32.4118 55.2579 32.9553 57.3141C32.6489 57.3494 31.041 57.5862 30.7341 57.4621L31.0624 57.8247L31.0618 57.8241Z" fill="#FEDFDF"/>
<path id="Vector_37" d="M34.8803 59.6886C34.0239 63.0572 35.0855 66.7345 35.5281 69.9007C35.9235 72.7278 34.6133 77.4657 30.9143 76.4884C27.3792 75.5533 27.8224 72.2226 28.9604 69.2435C29.965 66.6144 30.6256 61.2909 32.5317 59.7482L34.8803 59.6886Z" fill="#FEDFDF"/>
<path id="Vector_38" d="M34.853 57.7252C33.1956 60.9827 30.6751 69.4089 28.2044 72.3664C25.7762 75.2724 20.7253 74.8894 18.2997 73.0417C15.1934 70.6754 15.8927 66.3119 17.7347 62.7182C20.1191 58.0675 23.9837 60.5769 27.7606 58.2403C28.841 57.5713 32.452 56.3891 33.6031 55.9768C33.5963 56.73 34.8524 57.7259 34.8524 57.7259L34.853 57.7252Z" fill="#FDC9CA"/>
<g id="Group_8">
<path id="Vector_39" d="M25.5445 63.15L25.5256 63.2146C26.5205 63.3882 28.4395 62.8368 30.4146 61.8083C32.5371 60.703 34.1842 59.3244 34.8211 58.1189L34.7642 58.0938C34.1347 59.2853 32.4999 60.6519 30.3908 61.7498C28.4291 62.771 26.5269 63.3207 25.5458 63.1487L25.5445 63.15Z" fill="#91807F"/>
<path id="Vector_40" d="M23.9451 61.8182L23.9173 61.8808C25.3251 62.3563 27.2318 62.2033 29.2862 61.4491C31.204 60.7448 32.9994 59.6107 34.2114 58.3356L34.1662 58.2943C32.9628 59.5601 31.1778 60.6878 29.2715 61.3879C27.231 62.1365 25.3399 62.2891 23.9463 61.8181L23.9451 61.8182Z" fill="#91807F"/>
<path id="Vector_41" d="M25.2857 57.935C25.6962 58.6553 26.5006 59.1072 27.6119 59.2442C29.7486 59.5058 32.4386 58.5795 33.7068 57.5698L33.6702 57.5204C33.6543 57.5328 33.6384 57.5452 33.6226 57.5576C32.3484 58.5434 29.7209 59.4364 27.6278 59.1793C26.535 59.0457 25.7453 58.6024 25.3441 57.8979L25.2863 57.9356L25.2857 57.935Z" fill="#91807F"/>
<path id="Vector_42" d="M34.0649 59.2707C32.7781 60.4615 30.9937 63.1014 31.0565 65.2402C31.0859 66.237 31.5161 66.9838 32.3361 67.4598L32.3746 67.4021C31.5723 66.9362 31.1514 66.2051 31.1226 65.2298C31.0606 63.1124 32.83 60.4968 34.1064 59.316L34.0655 59.27L34.0649 59.2707Z" fill="#91807F"/>
<path id="Vector_43" d="M20.9118 68.5196L20.8857 68.5826C22.743 69.1609 25.245 68.1484 28.3228 65.5724C30.8537 63.4538 33.1719 60.7945 34.5566 59.2053L34.7629 58.9684L34.7159 58.9291L34.5096 59.166C33.1267 60.7532 30.811 63.4098 28.285 65.5244C25.2286 68.0832 22.747 69.0912 20.9124 68.5189L20.9118 68.5196Z" fill="#91807F"/>
<path id="Vector_44" d="M25.9696 52.3294C25.3593 53.8331 26.047 54.9206 26.7323 55.5682C28.3036 57.0541 31.3854 57.6431 33.1985 56.8039L33.1771 56.7452C31.3852 57.5744 28.3362 56.9898 26.7796 55.5185C26.1078 54.8833 25.4322 53.8178 26.0297 52.3477L25.969 52.3301L25.9696 52.3294Z" fill="#91807F"/>
</g>
<path id="Vector_45" d="M36.2794 51.3241C38.4448 53.0525 39.7899 56.8827 39.7316 57.5582C39.6572 58.4122 39.0024 59.0694 38.968 59.9049C38.9332 60.7256 39.4827 61.5216 39.5315 62.3342C39.6882 64.9906 38.0842 68.0388 35.4541 69.1703C34.5812 67.7544 33.7437 65.4574 33.4388 63.7074C33.1377 61.9767 34.2515 60.6216 33.7041 58.9151C33.1897 57.3098 31.1883 56.3098 30.8607 54.6075C30.5999 53.2549 30.6537 49.4604 31.1028 48.088C33.246 47.5826 34.817 50.1567 36.2794 51.3241Z" fill="#FDB2BB"/>
<g id="Group_9">
<path id="Vector_46" d="M26.7769 62.5174C26.9686 62.7013 26.9585 63.0333 26.7496 63.252C26.5426 63.4687 26.205 63.5013 26.0139 63.3179C25.8223 63.1341 25.8324 62.8021 26.0413 62.5834C26.2483 62.3667 26.5859 62.3341 26.7769 62.5174Z" fill="#91807F"/>
<path id="Vector_47" d="M28.0889 60.3773C28.2806 60.5612 28.2704 60.8931 28.0615 61.1118C27.8545 61.3286 27.517 61.3611 27.3253 61.1772C27.1342 60.9939 27.1437 60.6614 27.3526 60.4427C27.4571 60.3327 27.9869 60.2791 28.0883 60.3768L28.0889 60.3773Z" fill="#91807F"/>
<path id="Vector_48" d="M25.9419 60.3231C26.1336 60.507 26.1235 60.8389 25.9146 61.0577C25.7076 61.2744 25.37 61.3069 25.1789 61.1236C24.9872 60.9397 24.9974 60.6078 25.2062 60.3891C25.4133 60.1723 25.7508 60.1398 25.9419 60.3231Z" fill="#91807F"/>
<path id="Vector_49" d="M26.8149 58.7599C27.0066 58.9437 26.9965 59.2757 26.7876 59.4944C26.5806 59.7112 26.243 59.7437 26.0519 59.5604C25.9505 59.4628 25.7684 59.1519 26.0792 58.8258C26.2863 58.6091 26.6238 58.5766 26.8149 58.7599Z" fill="#91807F"/>
<path id="Vector_50" d="M30.3224 63.8081C30.5141 63.992 30.5039 64.3239 30.2951 64.5426C30.0881 64.7594 29.7505 64.7919 29.5594 64.6086C29.3677 64.4247 29.3732 64.1655 29.582 63.9468C29.7891 63.7301 30.1313 63.6248 30.323 63.8086L30.3224 63.8081Z" fill="#91807F"/>
<path id="Vector_51" d="M27.463 66.266C27.6664 66.4618 27.319 66.8925 27.1162 66.6973C26.9128 66.5015 27.2602 66.0707 27.463 66.266Z" fill="#91807F"/>
<path id="Vector_52" d="M29.1362 65.2072C29.339 65.4025 28.9921 65.8338 28.7893 65.6385C28.5865 65.4433 28.934 65.0125 29.1362 65.2072Z" fill="#91807F"/>
<path id="Vector_53" d="M25.0366 63.1419C25.2811 63.3764 25.2682 63.8 25.0016 64.0797C24.7374 64.3567 24.3067 64.3983 24.0623 64.1637C23.8179 63.9292 23.8307 63.5055 24.0979 63.2264C24.3621 62.9494 24.7928 62.9078 25.0366 63.1431L25.0366 63.1419Z" fill="#91807F"/>
<path id="Vector_54" d="M27.5356 63.6456C27.78 63.8801 27.7671 64.3038 27.4999 64.5829C27.2357 64.8599 26.8051 64.9014 26.5606 64.6669C26.3162 64.4323 26.3291 64.0087 26.5963 63.7296C26.8605 63.4526 27.2911 63.411 27.535 63.6462L27.5356 63.6456Z" fill="#91807F"/>
<path id="Vector_55" d="M25.8738 64.9593C26.1183 65.1939 26.1054 65.6175 25.8382 65.8966C25.574 66.1736 25.1434 66.2152 24.8989 65.9806C24.6545 65.7461 24.6674 65.3224 24.934 65.0428C25.1982 64.7658 25.6288 64.7242 25.8726 64.9595L25.8738 64.9593Z" fill="#91807F"/>
</g>
</g>
<g id="Group_10">
<g id="Group_11">
<path id="Vector_56" d="M97.2339 83.5523C94.3757 83.4467 91.3846 86.1092 91.9342 88.7985C90.4272 89.6926 89.5212 91.4652 89.1095 93.1078C90.3707 94.8359 94.9 93.8968 97.0572 94.3825C98.1636 94.6312 99.6134 94.7476 100.561 95.233C101.868 95.9023 102.26 97.282 103.936 96.7198C107.2 95.6249 106.738 89.7152 105.678 87.6694C104.237 84.8902 101.168 85.2255 99.0464 83.4084L97.2333 83.553L97.2339 83.5523Z" fill="#ECA4AA"/>
<path id="Vector_57" d="M90.4955 99.5769C87.9825 98.8257 88.8122 94.5753 90.9294 92.5382C90.9343 92.533 90.922 92.5486 90.9142 92.55C92.0298 90.9116 95.6238 92.1512 97.5157 92.3992C99.388 92.6451 100.172 94.161 102.048 94.1449C103.29 94.1347 105.465 94.2167 105.405 95.9005C105.346 97.5837 101.527 101.806 100.088 101.705L90.4954 99.5781L90.4955 99.5769Z" fill="#FDB2BB"/>
<path id="Vector_58" d="M107.385 99.3138C104.816 102.164 101.025 102.97 97.9555 102.85C96.0697 102.776 89.734 102.242 90.1017 99.3523C90.4107 96.9236 95.4141 99.9292 96.9704 100.282C100.273 101.033 107.384 99.3132 107.384 99.3132L107.385 99.3138Z" fill="#FEDFDF"/>
<path id="Vector_59" d="M110.444 94.2247C108.882 100.498 101.083 104.036 96.414 100.94C97.5771 99.8332 98.2132 98.463 99.3356 97.4301C100.653 96.2182 102.291 95.9222 102.712 94.0313C102.783 93.7122 102.517 90.5338 102.415 90.1937C102.07 89.0396 100.68 89.2701 101.332 87.7538C100.596 87.7892 99.6712 87.9351 98.9682 88.0162C99.3573 86.3652 104.9 85.5296 106.046 86.2173C107.419 87.041 111.996 90.3816 110.535 91.8448L110.444 94.2247Z" fill="#FDC9CA"/>
</g>
</g>
<g id="Group_12">
<path id="Vector_60" d="M94.3663 106.512C93.147 106.918 92.122 108.293 91.0559 109.166C91.0558 109.171 91.079 109.128 91.0765 109.131C91.0691 110.322 91.8713 110.403 92.367 111.09C92.4524 111.209 93.6918 113.33 93.639 113.305C95.1122 114.013 96.8752 111.594 98.5829 111.239C103 110.318 105.791 114.097 109.961 109.648C109.961 109.648 108.685 101.736 94.3663 106.51L94.3663 106.512Z" fill="#FDB2BB"/>
<path id="Vector_61" d="M110.188 108.793C109.309 104.867 106.402 103.879 102.652 103.415C98.7171 102.928 96.2991 104.318 93.1896 107.354C94.4776 106.648 95.8683 106.909 97.2512 106.812C98.9546 106.692 100.464 106.03 102.12 105.764C105.485 105.226 108.418 106.982 110.431 109.401C110.29 109.259 110.154 109.107 110.006 108.972L110.187 108.793L110.188 108.793Z" fill="#FDC9CA"/>
</g>
<path id="Vector_62" d="M91.8043 79.0092C94.8564 79.8963 98.6551 80.7068 101.087 82.6125C100.655 82.6004 100.214 82.64 99.7949 82.7091C99.3166 82.7878 98.8362 82.9086 98.3719 83.0844C97.7459 82.7956 97.1117 82.5238 96.4692 82.2713C94.3862 81.4524 91.1111 80.7758 89.6528 79.0717C89.3367 78.7018 89.1087 78.3294 88.8986 77.9588C89.8285 78.3493 90.7842 78.7121 91.8043 79.0092Z" fill="#91807F"/>
</g>
<defs>
<clipPath id="clip0_241_7685">
<rect width="143.36" height="77.44" fill="white" transform="matrix(0.737939 0.674867 -0.681061 0.732227 53.1413 0)"/>
</clipPath>
</defs>
</svg>
