<svg width="32" height="32" viewBox="0 0 32 32" fill="none" xmlns="http://www.w3.org/2000/svg">
<g clip-path="url(#clip0_241_7380)">
<path d="M23.3314 18.9601C22.4876 18.0326 21.7537 17.1998 20.9916 16.3961C20.2456 15.6091 19.4704 14.8513 18.7083 14.0809C18.2072 13.574 17.6568 13.143 17.0187 13.8155C16.4229 14.4432 16.8463 14.9689 17.3161 15.4446C18.5923 16.7386 19.8706 18.0315 21.1448 19.3286C21.3817 19.5701 21.6015 19.8283 21.8737 20.1281C21.5854 20.379 21.3969 20.5809 21.1731 20.7308C17.8796 22.9471 14.317 25.5247 10.7151 27.1497C10.0104 27.4682 9.49829 27.3037 9.03053 26.7374C8.47507 26.0649 7.81477 25.482 7.19579 24.8647C6.74316 24.4139 6.22399 24.2588 5.72296 24.7325C5.20279 25.2238 5.37114 25.7433 5.81571 26.2065C6.57985 27.0029 7.34802 27.7961 8.37829 28.8642C6.24718 29.7959 4.38824 30.7078 2.45572 31.4126C1.36597 31.8092 0.29436 30.8307 0.534287 29.6855C0.819579 28.326 1.1956 26.9342 1.82364 25.7089C3.59386 22.257 5.51227 18.8831 7.49923 15.2469C8.41055 16.165 9.08295 16.8469 9.75939 17.5235C10.0306 17.7952 10.2715 18.1981 10.5961 18.2907C10.9983 18.4052 11.6294 18.4188 11.8693 18.1773C12.078 17.968 12.0528 17.1956 11.83 16.9302C11.1364 16.1036 10.335 15.3593 9.50938 14.6618C8.88637 14.1351 8.76843 13.7082 9.28256 13.0056C10.2322 11.7064 10.4288 11.3618 11.3582 10.047C13.1728 7.47785 15.6527 6.26508 18.7556 6.73145C21.8354 7.1947 23.8264 9.11639 24.7357 12.076C25.4676 14.4557 25.0542 16.7022 23.3314 18.9622V18.9601Z" fill="white"/>
<path d="M22.2658 6.46286C20.5339 4.7983 20.5541 1.96989 22.2658 0.5C23.9978 2.0563 23.9917 4.75353 22.2658 6.46286Z" fill="white"/>
<path d="M31.5 9.79506C29.9022 11.622 27.0997 11.5387 25.5744 9.80026C27.2378 8.10447 29.7308 8.08677 31.5 9.79506Z" fill="white"/>
<path d="M29.0322 3.50326C29.1602 5.92047 26.0291 8.65206 23.6913 8.51777C23.3909 6.36289 26.6571 3.43456 29.0322 3.50326Z" fill="white"/>
</g>
<defs>
<clipPath id="clip0_241_7380">
<rect width="31" height="31" fill="white" transform="translate(0.5 0.5)"/>
</clipPath>
</defs>
</svg>
