<svg width="196" height="240" viewBox="0 0 196 240" fill="none" xmlns="http://www.w3.org/2000/svg">
<g id="Layer_1" clip-path="url(#clip0_241_7385)">
<g id="Group">
<path id="Vector" d="M108.267 96.3275C107.748 92.9826 111.396 89.8373 111.042 86.2027C110.672 82.386 106.635 79.669 102.573 82.0032C98.9814 84.0656 98.0737 88.8974 98.8921 92.2235C99.6797 95.4241 104.282 101.077 103.172 104.802C103.873 105.053 104.263 102.35 104.917 102.627C105.552 101.196 107.739 97.0699 107.477 96.3159L108.268 96.3284L108.267 96.3275Z" fill="#FDBCC4"/>
<path id="Vector_2" d="M102.809 102.432C99.2545 99.3194 101.79 92.7431 98.325 89.6431C95.7598 87.3487 90.5008 87.7061 87.2695 89.4766C78.3981 94.3342 83.2912 108.008 92.8675 105.803C94.9243 105.33 97.4177 104.006 99.0979 105.348C103.095 108.54 102.135 107.903 104.284 104.46L102.808 102.434L102.809 102.432Z" fill="#FDB2BB"/>
<path id="Vector_3" d="M86.8816 104.689C82.0391 104.973 79.9894 110.994 80.6515 114.758C81.5508 119.871 85.669 121.577 90.1901 117.657C91.9198 116.157 92.0765 114.621 93.4483 112.726C94.8879 110.739 98.3544 110.445 99.4035 108.62C99.6006 108.279 99.8947 107.951 100.067 107.604C99.3289 107.285 91.35 104.429 86.8806 104.69L86.8816 104.689Z" fill="#FDB2BB"/>
<g id="Group_2">
<path id="Vector_4" d="M97.6983 101.894C99.1226 103.848 102.181 105.246 104.003 106.079C104.154 106.148 104.298 106.214 104.432 106.276L104.472 106.204C104.338 106.142 104.195 106.077 104.043 106.007C101.738 104.954 97.4479 102.993 97.0365 100.161C96.8832 99.1092 97.2833 98.0114 98.2268 96.9022L98.1698 96.8559C97.209 97.9874 96.8018 99.1055 96.9583 100.183C97.0479 100.794 97.3127 101.365 97.7001 101.895L97.6983 101.894Z" fill="#F5ECCF"/>
<path id="Vector_5" d="M102.004 102.321C102.558 103.082 103.3 103.714 104.208 104.155L104.25 104.082C101.284 102.645 100.107 99.12 101.513 95.8838L101.442 95.8604C100.45 98.1439 100.728 100.569 102.005 102.321L102.004 102.321Z" fill="#F5ECCF"/>
<path id="Vector_6" d="M92.2781 105.222L92.3264 105.278C93.7286 104.011 96.6099 104.078 98.5846 104.875C100.24 105.542 101.141 106.599 101.056 107.775L101.135 107.771C101.222 106.563 100.306 105.479 98.6219 104.8C96.624 103.995 93.7051 103.932 92.2772 105.221L92.2781 105.222Z" fill="#F5ECCF"/>
<path id="Vector_7" d="M90.483 110.486L90.5351 110.538C93.2115 107.87 97.7181 105.894 101.152 107.282L101.189 107.207C97.7239 105.807 93.1795 107.797 90.483 110.486Z" fill="#F5ECCF"/>
<path id="Vector_8" d="M92.1161 99.6089C93.407 101.382 95.6834 102.854 97.7504 104.192C98.9744 104.985 100.131 105.733 100.995 106.479L101.051 106.418C100.182 105.667 99.0246 104.918 97.7988 104.124C95.0908 102.371 92.0221 100.385 91.3024 97.8081L91.2268 97.8383C91.4004 98.4614 91.7097 99.05 92.1171 99.6079L92.1161 99.6089Z" fill="#F5ECCF"/>
<path id="Vector_9" d="M104.786 103.609L104.865 103.592C104.807 102.992 104.687 102.339 104.559 101.647C104.109 99.2039 103.6 96.4334 105.601 94.6425L105.553 94.5868C103.512 96.4125 104.027 99.2069 104.481 101.671C104.608 102.361 104.728 103.011 104.786 103.609Z" fill="#F5ECCF"/>
</g>
<path id="Vector_10" d="M108.542 94.5857C112.183 97.996 110.063 105.158 106.598 108.832C103.669 111.938 96.5735 113.778 93.4681 111.24C96.3585 108.831 99.8397 107.744 102.442 104.757C105.012 101.806 106.348 97.4984 108.43 94.629L108.542 94.5857Z" fill="#ECA4AA"/>
<path id="Vector_11" d="M107.101 108.127C107.973 107.602 108.897 107.11 109.34 106.816C110.467 106.071 113.837 104.326 114.924 105.077L117.34 106.966C114.937 107.394 113.082 110.189 110.517 110.758C109.648 110.951 105.644 111.247 105.117 110.255C105.906 109.682 106.601 108.948 107.099 108.127L107.101 108.127Z" fill="#91807F"/>
</g>
<g id="Group_3">
<path id="Vector_12" d="M163.806 176.146C160.335 169.711 139.033 173.338 134.503 180.001C134.551 179.979 134.481 180.3 134.496 180.264C134.471 180.289 132.241 183.894 133.298 181.995C141.928 178.014 154.582 173.656 162.743 177.512L163.806 176.144L163.806 176.146Z" fill="#FDC9CA"/>
<path id="Vector_13" d="M154.117 183.875C153.085 185.866 148.963 184.655 146.901 185.645C145.756 186.195 144.999 187.792 143.845 188.344C142.333 189.069 140.691 188.92 139.112 188.98C133.453 189.192 128.943 185.569 135.096 180.137C139.072 176.626 143.862 176.405 148.583 175.537C153.999 174.541 162.136 171.129 166.994 173.487C166.947 173.433 162.901 177.679 162.054 178.892L154.116 183.876L154.117 183.875Z" fill="#FDBCC4"/>
</g>
<g id="Group_4">
<g id="Group_5">
<path id="Vector_14" d="M137.218 174.103C135.151 175.058 123.57 199.487 119.545 194.46C118.106 192.665 123.326 183.226 124.5 181.437C127.342 177.107 132.081 174.119 134.808 170.993L137.218 174.103Z" fill="#FEDFDF"/>
<path id="Vector_15" d="M134.362 169.953C126.415 166.392 117.224 179.394 118.967 186.051C121.987 186.27 124.584 181.453 126.37 179.163C128.655 176.229 132.787 173.714 134.58 171.196L134.362 169.953Z" fill="#FEDFDF"/>
<path id="Vector_16" d="M131.313 170.493C123.953 171.623 120.171 168.66 117.763 161.988C116.322 157.995 117.63 150.438 120.877 146.944C124.767 142.758 132.293 145.526 135.142 148.506C139.821 153.398 137.397 157.407 137.713 163.503C137.764 164.494 138.198 165.571 138.695 166.106C138.556 166.088 138.551 166.008 138.679 165.863C137.043 167.764 135.517 170.632 133.503 172.362L131.312 170.496L131.313 170.493Z" fill="#FDB2BB"/>
<path id="Vector_17" d="M122.332 165.051C125.794 166.702 129.578 167.878 133.235 169.016C133.879 169.216 134.524 169.417 135.167 169.621L135.208 169.524C134.563 169.321 133.92 169.121 133.275 168.921C129.62 167.783 125.841 166.608 122.384 164.96L122.332 165.053L122.332 165.051Z" fill="#F7F1DB"/>
<path id="Vector_18" d="M128.531 164.593C130.437 166.283 132.678 167.499 134.883 167.978L134.915 167.879C131.539 167.146 128.076 164.67 125.876 161.418L125.79 161.481C126.566 162.629 127.499 163.68 128.531 164.593Z" fill="#F7F1DB"/>
<path id="Vector_19" d="M136.648 161.136C133.949 167.504 129.064 179.498 140.499 173.994C144.287 172.171 148.605 171.603 146.546 166.609C144.659 162.034 136.649 161.137 136.649 161.137L136.648 161.136Z" fill="#F2939A"/>
<g id="Group_6">
<path id="Vector_20" d="M132.615 169.955C129.336 170.514 125.945 171.093 122.95 170.899L122.934 170.982C125.938 171.176 129.334 170.596 132.619 170.036L132.615 169.955Z" fill="#F7F1DB"/>
<path id="Vector_21" d="M131.2 173.561C128.655 174.775 126.025 176.029 123.321 176.777L123.334 176.856C126.046 176.107 128.679 174.851 131.228 173.635L131.201 173.56L131.2 173.561Z" fill="#F7F1DB"/>
<path id="Vector_22" d="M131.574 164.829C129.651 163.694 127.835 162.622 126.029 162.306L126.006 162.387C127.8 162.702 129.609 163.77 131.526 164.902L131.575 164.83L131.574 164.829Z" fill="#F7F1DB"/>
<path id="Vector_23" d="M133.305 171.476C133.299 171.505 133.296 171.534 133.293 171.565C130.752 172.457 128.395 173.533 127.098 174.91L127.042 174.858C128.356 173.461 130.74 172.375 133.305 171.476Z" fill="#F7F1DB"/>
<path id="Vector_24" d="M123.966 169.598C123.837 169.948 123.454 170.174 123.115 170.091C122.78 170.008 122.599 169.646 122.727 169.295C122.856 168.945 123.239 168.719 123.578 168.802C123.913 168.885 124.093 169.248 123.966 169.598Z" fill="#FFEB99"/>
<path id="Vector_25" d="M127.654 174.891C127.525 175.241 127.142 175.467 126.803 175.384C126.468 175.301 126.287 174.939 126.415 174.588C126.544 174.238 126.927 174.013 127.265 174.096C127.6 174.179 127.781 174.541 127.653 174.892L127.654 174.891Z" fill="#FFEB99"/>
<path id="Vector_26" d="M126.47 165.493C126.341 165.843 125.958 166.068 125.619 165.986C125.284 165.903 125.103 165.541 125.231 165.189C125.36 164.839 125.743 164.614 126.081 164.697C126.416 164.78 126.597 165.142 126.468 165.493L126.47 165.493Z" fill="#FFEB99"/>
<path id="Vector_27" d="M128.271 166.962C128.142 167.312 127.759 167.537 127.421 167.454C127.086 167.371 126.905 167.009 127.033 166.657C127.162 166.307 127.545 166.082 127.883 166.165C128.218 166.248 128.399 166.61 128.271 166.962Z" fill="#FFEB99"/>
<path id="Vector_28" d="M123.997 174.58C123.868 174.93 123.486 175.155 123.147 175.073C122.812 174.99 122.632 174.627 122.759 174.277C122.888 173.927 123.271 173.701 123.609 173.785C123.944 173.868 124.124 174.23 123.996 174.581L123.997 174.58Z" fill="#FFEB99"/>
<path id="Vector_29" d="M121.898 174.219C121.761 174.591 121.207 174.455 121.344 174.083C121.48 173.711 122.035 173.848 121.898 174.219Z" fill="#FFEB99"/>
<path id="Vector_30" d="M127.039 161.664C126.875 162.111 126.386 162.399 125.954 162.293C125.526 162.188 125.296 161.723 125.46 161.277C125.624 160.831 126.113 160.542 126.545 160.649C126.974 160.754 127.202 161.217 127.039 161.664Z" fill="#FFEB99"/>
<path id="Vector_31" d="M123.001 171.272C122.837 171.718 122.348 172.007 121.916 171.901C121.487 171.796 121.259 171.332 121.422 170.885C121.586 170.439 122.075 170.15 122.507 170.257C122.935 170.362 123.164 170.825 123.001 171.272Z" fill="#FFEB99"/>
<path id="Vector_32" d="M120.797 170.306C120.633 170.752 120.144 171.041 119.712 170.934C119.283 170.829 119.054 170.365 119.218 169.918C119.382 169.472 119.871 169.183 120.303 169.29C120.731 169.395 120.961 169.859 120.797 170.306Z" fill="#FFEB99"/>
</g>
</g>
<path id="Vector_33" d="M128.057 157.475C128.271 161.623 131.638 164.368 135.113 165.4C135.096 165.431 135.081 165.463 135.068 165.495C133.534 165.038 132.021 164.252 130.787 163.158C129.203 161.755 128.077 159.848 127.956 157.494L128.057 157.475Z" fill="#F7F1DB"/>
</g>
<path id="Vector_34" d="M185.786 140.614C185.786 140.614 185.789 140.62 185.79 140.622C185.789 140.619 185.786 140.615 185.786 140.614Z" fill="#91807F"/>
<path id="Vector_35" d="M227.469 145.923C226.304 146.003 225.626 147.099 224.539 147.117C223.01 147.142 221.056 145.814 219.172 145.795C216.873 145.772 215.301 146.467 213.244 146.447C211.273 146.428 209.425 145.953 207.384 146.077C204.609 146.246 204.154 145.482 201.811 144.873C199.76 144.34 197.809 145.906 195.452 145.969C191.075 146.085 188.259 144.202 186.14 141.145C186.024 140.979 185.91 140.808 185.798 140.633C185.798 140.633 185.8 140.633 185.802 140.633C185.8 140.631 185.799 140.63 185.797 140.628L185.79 140.622C185.79 140.622 185.793 140.625 185.794 140.626C185.038 140.116 184.281 139.609 183.525 139.107C183.306 138.961 183.087 138.815 182.868 138.67C182.284 138.283 181.7 137.9 181.116 137.515C180.44 137.072 179.766 136.632 179.091 136.192C176.078 134.231 173.064 132.299 170.052 130.346C167.075 128.417 164.099 126.47 161.128 124.455C153.228 119.101 144.414 113.247 135.245 110.64C133.469 110.135 132.339 109.868 130.957 108.797C130.002 108.057 130.968 107.475 129.556 107.139C129.337 107.548 128.984 107.834 128.791 108.238C123.454 106.857 117.899 104.56 112.184 102.74C111.482 102.516 110.805 102.281 110.148 102.026C108.721 101.478 107.387 100.851 106.116 100.112C105.93 100.004 105.744 99.8923 105.559 99.7789C105.087 99.4881 104.624 99.1813 104.166 98.8545C104.139 98.8349 104.111 98.8154 104.083 98.794C103.685 98.5096 103.291 98.2087 102.901 97.8944C102.36 97.4568 101.803 97.0319 101.239 96.6153C101.218 96.5997 101.197 96.5842 101.176 96.5686C101.004 96.4426 100.833 96.3185 100.662 96.1944C100.621 96.165 100.582 96.1364 100.541 96.107C98.7347 94.8064 96.8843 93.5747 95.2351 92.2708C94.4556 93.1727 93.9154 92.7321 93.8187 93.8246C92.9097 93.2953 91.9787 92.589 91.3137 91.719C93.1006 88.087 85.4562 88.0705 86.9015 91.6146C86.3056 91.4308 85.7107 91.2479 85.1157 91.0649C81.5265 89.9608 77.9463 88.8689 74.3048 87.8794C70.7982 86.9273 65.7607 86.7363 63.1805 84.1225C60.3039 81.2089 58.7435 77.1794 55.3377 74.4372C51.9465 71.7066 49.0936 69.2199 46.4093 65.8115C45.1427 64.2002 42.68 61.1225 40.7242 60.4747C40.6441 61.3397 40.272 62.1592 40.6447 63.0408C37.4517 59.8437 37.1666 55.8492 32.7001 53.7422C29.2307 54.8038 36.1261 63.2824 37.9554 64.2942C37.3218 64.3644 37.1005 64.7774 36.6056 64.9611C37.4694 66.3014 38.5179 67.3501 39.6734 68.2309C41.1406 69.3492 42.779 70.1979 44.4271 71.0306C46.4601 72.0567 48.5077 73.0618 50.2676 74.5203C53.9903 77.6095 57.8511 79.153 61.8231 85.3174C61.192 85.6384 60.6136 85.6693 60.0461 85.6356C59.2158 85.5871 58.4056 85.3984 57.4793 85.7742C57.0426 86.7507 57.1728 88.0316 57.6844 88.8167C58.2179 88.8669 59.1292 89.2953 59.9291 89.1631C59.4101 90.3356 60.2338 90.6685 61.3059 90.6668C62.2637 90.6675 63.4196 90.4024 63.9984 90.2361C64.1059 91.1657 64.6278 91.9525 65.4477 92.4463C68.8484 90.676 74.8215 91.415 78.1571 92.4361C79.7644 92.9278 81.4873 93.4028 83.2511 93.854C86.1634 94.5969 89.1811 95.2739 91.9495 95.8452C93.9314 96.2551 95.8319 96.8237 97.6726 97.5096C97.6967 97.5183 97.7208 97.527 97.745 97.5357C98.7994 97.9305 99.8314 98.3641 100.849 98.829C100.875 98.8412 100.903 98.8533 100.929 98.8655C101.391 99.0762 101.851 99.2956 102.307 99.5181C102.972 99.845 103.631 100.183 104.286 100.531C104.316 100.547 104.345 100.562 104.376 100.579C104.577 100.686 104.776 100.794 104.976 100.902C105.178 101.012 105.378 101.123 105.579 101.234C106.963 102.003 108.329 102.809 109.688 103.631C110.592 104.179 111.493 104.733 112.394 105.288C113.58 106.017 114.765 106.748 115.959 107.463C116.892 108.024 117.832 108.576 118.78 109.112C122.498 111.217 126.528 112.627 130.307 114.769C132.149 115.814 134.102 117.094 135.781 118.456C137.089 119.516 137.632 120.653 138.283 121.803C138.612 122.382 138.968 122.964 139.462 123.542C141.74 126.204 146.858 127.261 150.111 128.54C150.285 128.607 150.458 128.677 150.63 128.747C150.758 128.799 150.886 128.851 151.015 128.904C151.041 128.914 151.067 128.925 151.093 128.937C151.218 128.988 151.342 129.041 151.467 129.094C151.584 129.144 151.701 129.193 151.817 129.244C151.886 129.273 151.956 129.304 152.024 129.334C152.208 129.414 152.391 129.495 152.572 129.577C152.744 129.654 152.914 129.731 153.084 129.81C154.611 130.513 156.106 131.279 157.575 132.093C157.88 132.261 158.182 132.432 158.483 132.604C158.483 132.604 158.484 132.605 158.485 132.606C159.492 133.181 160.489 133.777 161.473 134.39C162.258 134.879 163.036 135.377 163.808 135.884C165.168 136.776 166.508 137.692 167.834 138.62C168.752 139.262 169.662 139.909 170.566 140.558C171.097 140.939 171.762 141.526 172.519 142.222C174.948 144.451 178.327 147.78 181.27 148.871C174.067 148.922 168.393 156.248 163.697 162.284C163.181 162.947 162.676 163.594 162.183 164.215C161.939 164.521 161.699 164.821 161.462 165.113C161.438 165.142 161.415 165.171 161.392 165.199C162.983 165.254 164.062 166.187 165.032 167.258C165.444 166.971 165.855 166.677 166.267 166.379C166.516 166.198 166.765 166.014 167.014 165.83C167.537 165.444 168.058 165.051 168.582 164.657C168.874 164.437 169.167 164.216 169.46 163.996C171.265 162.635 173.085 161.283 174.95 160.113C174.977 160.321 175.018 160.525 175.068 160.725C175.237 161.405 175.516 162.048 175.765 162.709C175.896 163.055 176.02 163.405 176.116 163.769C176.071 163.295 176.049 162.869 176.045 162.482C176.035 161.237 176.236 160.402 176.61 159.777C177.519 158.255 179.447 157.971 181.815 155.986C183.355 154.693 182.897 153.561 185.437 153.235C187.354 152.99 188.367 154.315 190.644 154.156C192.439 154.032 193.452 152.631 195.023 152.262C196.652 151.88 199.793 151.639 201.306 152.211C204.99 153.601 207.596 152.047 210.997 154.363C211.141 156.501 212.258 159.364 210.295 160.842C213.453 161.128 213.967 158.31 215.696 156.335C217.385 155.517 219.799 155.264 221.525 155.595C223.305 155.938 224.368 157.478 226.444 156.327C226.436 156.323 226.433 156.315 226.443 156.309C226.444 156.315 226.444 156.321 226.444 156.327C226.45 156.325 226.457 156.319 226.462 156.317C226.463 156.331 226.453 156.333 226.443 156.328C226.675 158.998 230.392 155.527 231.854 154.841C231.869 154.834 231.885 154.827 231.901 154.82C233.353 154.232 238.341 156.248 241.5 157.836L247.703 151.167C241.627 149.881 232.457 147.256 229.644 146.502C228.775 146.269 228.495 145.851 227.465 145.92L227.469 145.923ZM184.188 149.256C184.059 149.221 183.928 149.19 183.8 149.161C183.944 149.128 184.086 149.084 184.225 149.03C184.21 149.11 184.197 149.189 184.188 149.269C184.187 149.264 184.187 149.26 184.188 149.256Z" fill="#A58F85"/>
<path id="Vector_36" d="M179.424 178.039C185.059 179.235 202.495 187.611 192.065 194.831C189.531 196.584 187.418 197.756 184.629 197.114C182.426 196.608 181.395 195.548 178.896 196.06C176.526 196.547 175.306 198.181 174.683 194.759C174.276 192.513 175.561 189.21 175.958 186.888C176.485 183.808 173.86 173.096 171.913 171.175L179.424 178.041L179.424 178.039Z" fill="#FDBCC4"/>
<path id="Vector_37" d="M176.727 175.746C175.53 181.487 177.241 188.692 176.608 194.708C175.817 202.231 169.208 202.612 163.394 205.384C160.349 206.835 158.061 208.208 155.065 206.698C153.9 206.11 153.578 204.797 152.494 204.237C151.183 203.56 149.675 203.875 148.305 203.351C140.688 200.432 145.085 193.54 149.052 188.424C153.01 183.319 159.561 177.325 165.368 174.765C165.58 170.77 169.796 169.889 172.94 169.646L176.726 175.747L176.727 175.746Z" fill="#FDC9CA"/>
<path id="Vector_38" d="M165.124 191.613L165.209 191.718C168.939 188.552 170.093 183.485 171.112 179.017C171.696 176.455 172.247 174.035 173.212 172.191L173.087 172.138C172.112 174.002 171.558 176.43 170.972 179.002C169.96 183.447 168.812 188.484 165.124 191.613Z" fill="#91807F"/>
<path id="Vector_39" d="M163.413 188.858L163.5 188.96C167.183 185.725 169.753 177.995 171.454 172.881C171.58 172.503 171.702 172.137 171.82 171.784L171.685 171.754C171.566 172.106 171.444 172.472 171.319 172.851C169.624 177.948 167.062 185.652 163.414 188.857L163.413 188.858Z" fill="#91807F"/>
<path id="Vector_40" d="M156.802 189.365C163.029 186.867 168.8 174.244 170.62 168.521L170.484 168.494C168.672 174.192 162.935 186.757 156.764 189.233L156.802 189.365Z" fill="#91807F"/>
<path id="Vector_41" d="M157.353 186.893L157.496 186.87C157.42 184.889 159.649 182.536 162.007 180.046C163.762 178.194 165.577 176.28 166.41 174.487L166.281 174.441C165.459 176.209 163.655 178.113 161.909 179.954C159.525 182.471 157.273 184.848 157.353 186.893Z" fill="#91807F"/>
<path id="Vector_42" d="M172.9 188.076C173.597 189.032 174.681 189.552 176.213 189.665L176.241 189.522C174.748 189.412 173.694 188.909 173.019 187.982C173.018 187.981 173.017 187.98 173.017 187.98C171.478 185.864 172.283 181.884 172.994 178.372C173.447 176.13 173.876 174.012 173.662 172.595L173.521 172.634C173.73 174.027 173.304 176.132 172.853 178.361C172.136 181.9 171.325 185.913 172.895 188.073C172.896 188.074 172.897 188.075 172.898 188.076L172.9 188.076Z" fill="#91807F"/>
<path id="Vector_43" d="M169.575 169.133C171.501 165.389 180.283 159.126 184.138 156.668C192.691 151.216 192.461 161.993 193.745 166.851C194.253 168.779 196.253 171.871 195.643 174.103C194.855 176.986 191.199 177.6 188.608 178.757C183.715 180.943 177.966 181.207 173.877 178.548C169.018 175.386 169.575 169.133 169.575 169.133Z" fill="#FDC9CA"/>
<g id="Group_7">
<path id="Vector_44" d="M47.909 90.3505C44.8514 89.5358 41.7458 92.4205 39.0568 93.7831C35.9575 95.3532 34.7637 95.3162 31.8194 94.5019C26.8126 93.1161 21.1532 91.4927 25.9756 85.2957C27.7082 83.07 31.0412 82.4341 31.5954 79.872C32.1738 77.1946 29.1561 76.0724 32.7943 72.9525C33.8749 72.026 35.5923 71.9744 36.6267 71.1833C37.15 70.783 38.5903 68.567 38.9739 68.4172C41.6034 67.3977 43.8192 70.3833 45.4143 72.1631C47.3442 74.3179 50.323 76.3446 50.5255 79.419C50.7502 82.829 50.0184 86.3407 50.8676 89.5536C50.3888 89.6087 47.8765 89.9787 47.397 89.7848L47.9099 90.3513L47.909 90.3505Z" fill="#FEDFDF"/>
<path id="Vector_45" d="M53.8755 93.2635C52.5373 98.527 54.1962 104.273 54.8878 109.22C55.5056 113.637 53.4583 121.04 47.6787 119.513C42.155 118.052 42.8476 112.848 44.6257 108.193C46.1953 104.085 47.2275 95.7672 50.2059 93.3566L53.8755 93.2635Z" fill="#FEDFDF"/>
<path id="Vector_46" d="M53.8329 90.1959C51.2432 95.2856 47.3049 108.452 43.4444 113.073C39.6504 117.613 31.7583 117.015 27.9682 114.128C23.1147 110.431 24.2073 103.612 27.0855 97.9974C30.8111 90.7306 36.8495 94.6516 42.7509 91.0007C44.4391 89.9554 50.0812 88.1082 51.8799 87.464C51.8693 88.6409 53.8319 90.1969 53.8319 90.1969L53.8329 90.1959Z" fill="#FDC9CA"/>
<g id="Group_8">
<path id="Vector_47" d="M39.2883 98.6721L39.2587 98.7731C40.8132 99.0444 43.8117 98.1827 46.8977 96.5757C50.2141 94.8487 52.7877 92.6946 53.7829 90.8111L53.694 90.7718C52.7105 92.6335 50.156 94.7688 46.8605 96.4843C43.7953 98.0799 40.8232 98.9389 39.2902 98.67L39.2883 98.6721Z" fill="#91807F"/>
<path id="Vector_48" d="M36.7892 96.5912L36.7457 96.689C38.9455 97.4319 41.9247 97.1928 45.1347 96.0143C48.1312 94.9139 50.9365 93.1418 52.8303 91.1495L52.7597 91.085C50.8794 93.0628 48.0902 94.8248 45.1117 95.9187C41.9234 97.0884 38.9686 97.3269 36.7911 96.591L36.7892 96.5912Z" fill="#91807F"/>
<path id="Vector_49" d="M38.8839 90.5233C39.5252 91.6486 40.7821 92.3548 42.5186 92.5689C45.8572 92.9776 50.0603 91.5303 52.0418 89.9526L51.9846 89.8754C51.9598 89.8948 51.935 89.9142 51.9102 89.9335C49.9193 91.4739 45.8138 92.8692 42.5434 92.4675C40.8358 92.2587 39.602 91.566 38.9751 90.4653L38.8848 90.5241L38.8839 90.5233Z" fill="#91807F"/>
<path id="Vector_50" d="M52.6014 92.6103C50.5908 94.471 47.8027 98.5958 47.9007 101.938C47.9468 103.495 48.6189 104.662 49.9002 105.406L49.9604 105.316C48.7068 104.588 48.049 103.445 48.0041 101.921C47.9072 98.613 50.672 94.5261 52.6663 92.6811L52.6024 92.6093L52.6014 92.6103Z" fill="#91807F"/>
<path id="Vector_51" d="M32.0496 107.062L32.009 107.16C34.9109 108.064 38.8204 106.482 43.6295 102.457C47.5839 99.1466 51.206 94.9916 53.3697 92.5085L53.692 92.1382L53.6185 92.0768L53.2962 92.447C51.1355 94.927 47.5172 99.0779 43.5704 102.382C38.7947 106.38 34.9172 107.955 32.0506 107.061L32.0496 107.062Z" fill="#91807F"/>
<path id="Vector_52" d="M39.9526 81.7649C38.9989 84.1144 40.0734 85.8136 41.1443 86.8255C43.5994 89.1471 48.4147 90.0675 51.2477 88.7563L51.2142 88.6646C48.4144 89.9602 43.6504 89.0467 41.2182 86.7478C40.1684 85.7553 39.1128 84.0905 40.0465 81.7934L39.9516 81.7659L39.9526 81.7649Z" fill="#91807F"/>
</g>
<path id="Vector_53" d="M56.0616 80.1938C59.445 82.8944 61.5468 88.879 61.4557 89.9345C61.3393 91.2689 60.3163 92.2958 60.2624 93.6013C60.2082 94.8835 61.0667 96.1273 61.1429 97.397C61.3877 101.548 58.8815 106.311 54.7721 108.079C53.4081 105.866 52.0996 102.277 51.6232 99.5427C51.1526 96.8384 52.893 94.7211 52.0377 92.0548C51.2339 89.5464 48.1067 87.984 47.5948 85.3241C47.1873 83.2106 47.2714 77.2817 47.9731 75.1374C51.3219 74.3477 53.7766 78.3697 56.0616 80.1938Z" fill="#FDB2BB"/>
<g id="Group_9">
<path id="Vector_54" d="M41.214 97.6837C41.5135 97.971 41.4977 98.4897 41.1713 98.8315C40.8478 99.1701 40.3204 99.2209 40.0218 98.9345C39.7223 98.6472 39.7381 98.1285 40.0645 97.7868C40.388 97.4481 40.9154 97.3973 41.214 97.6837Z" fill="#91807F"/>
<path id="Vector_55" d="M43.2639 94.3397C43.5634 94.627 43.5475 95.1457 43.2212 95.4875C42.8977 95.8261 42.3702 95.8769 42.0707 95.5897C41.7721 95.3032 41.7871 94.7837 42.1134 94.4419C42.2766 94.2701 43.1045 94.1864 43.2629 94.3389L43.2639 94.3397Z" fill="#91807F"/>
<path id="Vector_56" d="M39.9093 94.2548C40.2088 94.5421 40.1929 95.0608 39.8666 95.4025C39.5431 95.7412 39.0156 95.792 38.7171 95.5055C38.4176 95.2183 38.4334 94.6996 38.7598 94.3578C39.0832 94.0192 39.6107 93.9683 39.9093 94.2548Z" fill="#91807F"/>
<path id="Vector_57" d="M41.2734 91.8124C41.5729 92.0997 41.557 92.6184 41.2306 92.9601C40.9072 93.2988 40.3797 93.3496 40.0811 93.0632C39.9227 92.9106 39.6381 92.4249 40.1238 91.9154C40.4473 91.5768 40.9748 91.526 41.2734 91.8124Z" fill="#91807F"/>
<path id="Vector_58" d="M46.7537 99.7003C47.0532 99.9876 47.0374 100.506 46.711 100.848C46.3875 101.187 45.8601 101.237 45.5615 100.951C45.262 100.664 45.2705 100.259 45.5969 99.917C45.9203 99.5783 46.4551 99.4138 46.7546 99.7011L46.7537 99.7003Z" fill="#91807F"/>
<path id="Vector_59" d="M42.286 103.541C42.6038 103.846 42.0609 104.52 41.744 104.214C41.4262 103.909 41.9691 103.235 42.286 103.541Z" fill="#91807F"/>
<path id="Vector_60" d="M44.9003 101.886C45.2172 102.191 44.6752 102.865 44.3583 102.56C44.0414 102.255 44.5843 101.582 44.9003 101.886Z" fill="#91807F"/>
<path id="Vector_61" d="M38.4947 98.6593C38.8767 99.0258 38.8565 99.6877 38.4399 100.125C38.0272 100.557 37.3543 100.622 36.9723 100.256C36.5904 99.8894 36.6105 99.2275 37.028 98.7914C37.4408 98.3586 38.1137 98.2936 38.4947 98.6612L38.4947 98.6593Z" fill="#91807F"/>
<path id="Vector_62" d="M42.3994 99.446C42.7813 99.8125 42.7612 100.474 42.3437 100.911C41.9309 101.343 41.258 101.408 40.8761 101.042C40.4941 100.675 40.5143 100.013 40.9318 99.5773C41.3445 99.1445 42.0175 99.0795 42.3984 99.447L42.3994 99.446Z" fill="#91807F"/>
<path id="Vector_63" d="M39.8029 101.499C40.1849 101.866 40.1647 102.527 39.7472 102.964C39.3345 103.396 38.6615 103.461 38.2796 103.095C37.8977 102.728 37.9178 102.066 38.3344 101.629C38.7472 101.197 39.4201 101.132 39.8011 101.499L39.8029 101.499Z" fill="#91807F"/>
</g>
</g>
<g id="Group_10">
<path id="Vector_64" d="M181.825 131.661C179.063 129.124 181.054 121.165 182.283 117.462C182.877 115.67 185.168 111.666 187.6 111.802C189.918 111.933 190.307 115.989 190.956 117.935L181.825 131.661Z" fill="#FDB2BB"/>
<path id="Vector_65" d="M204.896 117.789C203.872 114.4 196.516 109.073 192.526 109.749C185.215 110.99 188.308 119.834 190.296 121.713L204.896 117.789Z" fill="#ECA4AA"/>
<path id="Vector_66" d="M197.102 144.83C192.209 145.529 183.699 143.242 183.837 135.966C185.728 137.469 188.235 139.886 190.502 140.995C192.984 142.208 197.092 141.423 198.988 143.101L197.101 144.83L197.102 144.83Z" fill="#FEDFDF"/>
<path id="Vector_67" d="M197.647 142.482C189.187 145.732 178.733 132.08 180.882 124.599C180.891 124.594 180.834 124.638 180.837 124.629C182.559 123.786 184.349 118.228 188.258 119.308C192.68 118.96 199.677 123.589 201.494 127.217C203.473 131.169 203.335 139.873 197.727 142.888C197.433 142.918 197.776 142.568 197.525 142.115L197.647 142.482Z" fill="#FDC9CA"/>
<path id="Vector_68" d="M202.166 138.8C207.806 134.908 209.196 125.373 206.972 120.337C204.256 114.188 200.152 113.487 194.779 117.698C194.821 119.465 194.13 121.142 192.207 121.682C197.315 124.992 202.364 133.105 200.396 140.252C200.731 139.672 200.693 139.228 200.766 138.576L202.166 138.8Z" fill="#FEDFDF"/>
<path id="Vector_69" d="M205.02 135.339C203.645 143.183 197.793 152 196.717 144.999C196.129 141.174 205.02 135.339 205.02 135.339Z" fill="#F2939A"/>
</g>
<g id="Group_11">
<g id="Group_12">
<path id="Vector_70" d="M174.488 146.283C175.321 149.388 170.615 154.094 166.693 154.986C168.44 151.035 172.5 147.056 171.732 142.838C173.044 144.217 174.193 145.188 174.487 146.284L174.488 146.283Z" fill="#F2939A"/>
<path id="Vector_71" d="M151.303 130.551C146.837 130.386 142.163 134.546 143.022 138.748C140.668 140.145 139.252 142.915 138.609 145.481C140.579 148.181 147.656 146.714 151.027 147.473C152.756 147.862 155.021 148.043 156.502 148.802C158.544 149.848 159.157 152.003 161.775 151.125C166.875 149.414 166.153 140.18 164.497 136.984C162.245 132.641 157.451 133.165 154.135 130.326L151.302 130.552L151.303 130.551Z" fill="#ECA4AA"/>
<path id="Vector_72" d="M140.774 155.589C136.848 154.415 138.144 147.774 141.452 144.591C141.46 144.583 141.441 144.607 141.428 144.609C143.172 142.049 148.787 143.986 151.743 144.374C154.669 144.758 155.894 147.126 158.825 147.101C160.766 147.085 164.163 147.214 164.071 149.844C163.978 152.474 158.011 159.072 155.762 158.914L140.774 155.591L140.774 155.589Z" fill="#FDB2BB"/>
<path id="Vector_73" d="M171.118 140.213C169.855 132.868 156.704 126.253 149.327 130.859C150.343 131.819 151.692 132.112 152.607 133.138C153.196 133.799 152.829 135.4 153.623 136.198C158.855 133.576 171.118 140.213 171.118 140.213Z" fill="#FDB2BB"/>
<path id="Vector_74" d="M167.164 155.178C163.15 159.632 157.226 160.891 152.43 160.703C149.484 160.588 139.584 159.753 140.159 155.238C140.642 151.443 148.46 156.139 150.891 156.691C156.052 157.864 167.163 155.177 167.163 155.177L167.164 155.178Z" fill="#FEDFDF"/>
<path id="Vector_75" d="M171.944 147.226C169.502 157.028 157.318 162.557 150.022 157.719C151.839 155.989 152.833 153.848 154.587 152.235C156.645 150.341 159.204 149.878 159.862 146.924C159.973 146.425 159.557 141.459 159.398 140.928C158.86 139.124 156.688 139.484 157.706 137.115C156.556 137.171 155.111 137.398 154.013 137.525C154.621 134.945 163.281 133.64 165.072 134.714C167.217 136.002 174.368 141.221 172.086 143.507L171.944 147.226Z" fill="#FDC9CA"/>
</g>
<g id="Group_13">
<path id="Vector_76" d="M157.136 148.476C157.812 148.497 158.497 148.519 159.178 148.517C159.167 148.55 159.157 148.585 159.15 148.62C158.473 148.622 157.79 148.6 157.12 148.579C153.977 148.478 150.726 148.373 147.929 150.539L147.873 150.461C150.703 148.27 153.973 148.375 157.135 148.477L157.136 148.476Z" fill="#F2E7C4"/>
<path id="Vector_77" d="M153.041 146.737C153.527 146.669 153.986 146.606 154.364 146.579C155.596 146.493 156.816 146.606 157.995 146.718C158.606 146.777 159.229 146.835 159.855 146.866C159.854 146.872 159.853 146.879 159.852 146.884C159.846 146.912 159.842 146.94 159.839 146.967C159.209 146.936 158.586 146.878 157.973 146.821C156.798 146.709 155.583 146.595 154.359 146.681C153.983 146.708 153.526 146.772 153.043 146.838C151.346 147.073 149.236 147.366 148.23 146.469L148.304 146.389C149.28 147.259 151.366 146.969 153.042 146.736L153.041 146.737Z" fill="#F2E7C4"/>
<path id="Vector_78" d="M149.419 141.764C149.673 143.3 152.837 144.674 154.113 144.987C155.459 145.318 156.959 145.079 158.409 144.848C158.851 144.778 159.285 144.708 159.71 144.654C159.713 144.687 159.718 144.721 159.721 144.754C159.293 144.807 158.857 144.877 158.412 144.948C156.952 145.181 155.442 145.422 154.077 145.086C152.994 144.82 150.57 143.795 149.657 142.542C149.48 142.3 149.361 142.047 149.317 141.791L149.417 141.762L149.419 141.764Z" fill="#F2E7C4"/>
<path id="Vector_79" d="M151.749 139.481C151.965 141.215 153.259 142.935 155.394 144.324C156.802 145.242 158.443 145.907 159.942 146.198C159.945 146.233 159.948 146.27 159.95 146.306C158.429 146.017 156.761 145.343 155.332 144.413C154.217 143.687 153.33 142.872 152.702 142.009C152.115 141.203 151.754 140.357 151.649 139.506L151.751 139.481L151.749 139.481Z" fill="#F2E7C4"/>
</g>
<g id="Group_14">
<path id="Vector_80" d="M147.34 151.081C146.866 150.431 147.969 149.555 148.442 150.205C148.915 150.856 147.812 151.732 147.34 151.081Z" fill="#FFEB99"/>
<path id="Vector_81" d="M148.058 146.902C147.731 146.451 148.493 145.845 148.821 146.295C149.149 146.745 148.386 147.351 148.058 146.902Z" fill="#FFEB99"/>
<path id="Vector_82" d="M149.062 148.716C148.734 148.265 149.497 147.66 149.825 148.109C150.152 148.559 149.389 149.165 149.062 148.716Z" fill="#FFEB99"/>
<path id="Vector_83" d="M148.861 141.933C148.606 141.583 149.2 141.111 149.455 141.461C149.711 141.811 149.116 142.283 148.861 141.933Z" fill="#FFEB99"/>
<path id="Vector_84" d="M151.041 140.08C150.458 139.279 151.816 138.201 152.398 139.001C152.981 139.802 151.623 140.879 151.041 140.08Z" fill="#FFEB99"/>
</g>
</g>
<g id="Group_15">
<path id="Vector_85" d="M146.822 166.424C144.917 167.059 143.316 169.208 141.65 170.572C141.65 170.579 141.686 170.513 141.682 170.517C141.67 172.377 142.924 172.505 143.698 173.579C143.832 173.764 145.768 177.079 145.686 177.039C147.988 178.145 150.742 174.366 153.411 173.81C160.312 172.371 164.674 178.277 171.189 171.325C171.189 171.325 169.196 158.962 146.822 166.423L146.822 166.424Z" fill="#FDB2BB"/>
<path id="Vector_86" d="M171.543 169.989C170.171 163.855 165.628 162.311 159.768 161.586C153.62 160.825 149.842 162.997 144.984 167.741C146.996 166.637 149.169 167.046 151.33 166.893C153.992 166.705 156.35 165.671 158.937 165.257C164.195 164.415 168.778 167.16 171.923 170.94C171.702 170.717 171.491 170.479 171.26 170.268L171.541 169.989L171.543 169.989Z" fill="#FDC9CA"/>
</g>
<path id="Vector_87" d="M170.982 177.677C169.32 181.833 167.6 186.13 165.243 189.636L165.33 189.689C167.696 186.171 169.417 181.867 171.082 177.706L170.982 177.677Z" fill="#91807F"/>
<path id="Vector_88" d="M174.28 180.844C173.921 184.387 173.549 188.049 172.52 191.592L172.624 191.61C173.656 188.056 174.028 184.389 174.388 180.842L174.28 180.844Z" fill="#91807F"/>
<path id="Vector_89" d="M164.125 176.831C161.404 178.669 158.835 180.405 157.175 182.439L157.256 182.501C158.905 180.482 161.467 178.751 164.179 176.918L164.126 176.83L164.125 176.831Z" fill="#91807F"/>
<path id="Vector_90" d="M164.413 187.889C164.739 188.187 164.736 188.736 164.397 189.109C164.06 189.477 163.498 189.544 163.172 189.247C162.846 188.95 162.849 188.4 163.188 188.028C163.525 187.66 164.087 187.592 164.413 187.889Z" fill="#91807F"/>
<path id="Vector_91" d="M173.348 185.635C173.674 185.932 173.672 186.483 173.332 186.854C172.996 187.221 172.433 187.29 172.107 186.993C171.781 186.696 171.784 186.146 172.123 185.774C172.46 185.407 173.022 185.338 173.348 185.635Z" fill="#91807F"/>
<path id="Vector_92" d="M161.291 183.215C161.617 183.512 161.614 184.062 161.274 184.433C160.937 184.802 160.375 184.869 160.049 184.572C159.723 184.275 159.726 183.725 160.065 183.353C160.401 182.986 160.964 182.917 161.29 183.214L161.291 183.215Z" fill="#91807F"/>
<path id="Vector_93" d="M164.325 181.657C164.65 181.954 164.648 182.504 164.308 182.876C163.971 183.243 163.409 183.311 163.082 183.014C162.757 182.717 162.759 182.167 163.099 181.795C163.436 181.427 163.997 181.359 164.324 181.656L164.325 181.657Z" fill="#91807F"/>
<path id="Vector_94" d="M170.379 189.886C170.705 190.182 170.701 190.733 170.361 191.104C170.024 191.473 169.463 191.541 169.136 191.243C168.811 190.946 168.813 190.396 169.153 190.025C169.49 189.657 170.052 189.589 170.379 189.886Z" fill="#91807F"/>
<path id="Vector_95" d="M168.456 192.253C168.804 192.569 168.246 193.177 167.899 192.862C167.553 192.546 168.11 191.938 168.456 192.253Z" fill="#91807F"/>
<path id="Vector_96" d="M157.129 180.967C157.545 181.346 157.541 182.049 157.107 182.522C156.678 182.991 155.961 183.078 155.545 182.699C155.129 182.32 155.133 181.617 155.566 181.144C155.996 180.675 156.712 180.588 157.129 180.967Z" fill="#91807F"/>
<path id="Vector_97" d="M165.723 189.729C166.14 190.108 166.135 190.811 165.702 191.284C165.272 191.753 164.556 191.84 164.14 191.461C163.723 191.082 163.728 190.379 164.161 189.906C164.59 189.436 165.307 189.35 165.723 189.729Z" fill="#91807F"/>
<path id="Vector_98" d="M163.004 191.974C163.421 192.352 163.416 193.056 162.983 193.529C162.554 193.998 161.837 194.084 161.421 193.705C161.004 193.327 161.009 192.623 161.442 192.15C161.872 191.681 162.588 191.595 163.004 191.974Z" fill="#91807F"/>
<path id="Vector_99" d="M233.988 154.56C232.297 153.857 231.107 152.251 229.45 151.591C227.26 150.718 226.517 153.356 224.499 150.744C220.893 152.884 217.714 149.713 214.456 153.213C210.865 149.365 204.937 147.064 198.828 148.871C194.325 150.203 184.37 153.122 183.018 146.294C183.175 147.231 183.163 148.135 183.009 149.009C182.996 149.087 182.981 149.163 182.965 149.239C181.739 155.202 173.95 159.785 168.408 163.921C168.531 164.053 168.649 164.191 168.762 164.332C168.994 164.226 169.226 164.117 169.458 164.004C171.365 163.067 173.212 161.888 175.065 160.732C175.579 160.412 176.092 160.095 176.608 159.785C177.517 158.262 179.445 157.979 181.812 155.994C183.353 154.7 182.894 153.568 185.435 153.243C187.351 152.997 188.364 154.323 190.641 154.164C192.436 154.04 193.449 152.639 195.021 152.27C196.65 151.888 199.79 151.647 201.303 152.218C204.988 153.608 207.593 152.055 210.995 154.371C211.139 156.509 212.256 159.372 210.292 160.85C213.45 161.135 213.965 158.317 215.694 156.343C217.383 155.525 219.797 155.272 221.523 155.603C223.302 155.946 224.366 157.486 226.442 156.335L226.443 156.336C226.675 159.005 230.391 155.534 231.854 154.848C231.869 154.841 231.884 154.834 231.9 154.828C233.315 154.259 238.175 156.295 241.404 157.947L242.883 156.357C239.931 155.637 236.369 155.55 233.988 154.558L233.988 154.56Z" fill="#91807F"/>
<path id="Vector_100" d="M142.819 123.452C147.588 124.838 153.524 126.104 157.323 129.082C156.648 129.063 155.96 129.125 155.305 129.233C154.557 129.356 153.807 129.544 153.081 129.819C152.103 129.368 151.112 128.943 150.108 128.549C146.854 127.269 141.736 126.212 139.458 123.549C138.964 122.971 138.607 122.39 138.279 121.81C139.732 122.421 141.225 122.988 142.819 123.452Z" fill="#91807F"/>
</g>
<defs>
<clipPath id="clip0_241_7385">
<rect width="224" height="121" fill="white" transform="matrix(0.737939 0.674867 -0.681061 0.732227 82.4083 0)"/>
</clipPath>
</defs>
</svg>
